<svg xmlns="http://www.w3.org/2000/svg" width="14" height="16" fill="none" viewBox="0 0 14 16">
  <path fill="#525929" d="M.285 16v-.23l.483-.161c.306-.107.506-.245.598-.414.092-.184.138-.437.138-.759V2.407c0-.307-.046-.544-.138-.713-.077-.184-.26-.33-.552-.437l-.53-.207V.82h6.579c1.81 0 3.197.345 4.163 1.035.966.675 1.449 1.618 1.449 2.829 0 .675-.253 1.35-.76 2.024-.505.675-1.303 1.196-2.391 1.564l3.197 6.348c.138.26.291.475.46.644.184.153.421.291.713.414l.299.115V16H9.876L6.472 8.755H4.908v5.681c0 .291.046.529.138.713.092.184.283.322.575.414l.552.207V16H.285Zm4.623-7.705h1.104c1.104 0 1.901-.291 2.392-.874.49-.598.736-1.48.736-2.645 0-1.18-.23-2.055-.69-2.622-.46-.583-1.235-.874-2.323-.874h-1.22v7.015Z"/>
</svg>
